<?xml version="1.0" encoding="UTF-8" standalone="no"?>
<!-- Created with Inkscape (http://www.inkscape.org/) -->

<svg
   xmlns:dc="http://purl.org/dc/elements/1.1/"
   xmlns:cc="http://creativecommons.org/ns#"
   xmlns:rdf="http://www.w3.org/1999/02/22-rdf-syntax-ns#"
   xmlns:svg="http://www.w3.org/2000/svg"
   xmlns="http://www.w3.org/2000/svg"
   xmlns:sodipodi="http://sodipodi.sourceforge.net/DTD/sodipodi-0.dtd"
   xmlns:inkscape="http://www.inkscape.org/namespaces/inkscape"
   width="744.09448819"
   height="1052.3622047"
   id="svg5555"
   version="1.1"
   inkscape:version="0.48.1 r9760"
   sodipodi:docname="stick_man.svg">
  <defs
     id="defs5557" />
  <sodipodi:namedview
     id="base"
     pagecolor="#ffffff"
     bordercolor="#666666"
     borderopacity="1.0"
     inkscape:pageopacity="0.0"
     inkscape:pageshadow="2"
     inkscape:zoom="1.4"
     inkscape:cx="571.70356"
     inkscape:cy="847.94063"
     inkscape:document-units="px"
     inkscape:current-layer="layer1"
     showgrid="false"
     inkscape:window-width="1920"
     inkscape:window-height="1016"
     inkscape:window-x="-4"
     inkscape:window-y="-4"
     inkscape:window-maximized="1" />
  <metadata
     id="metadata5560">
    <rdf:RDF>
      <cc:Work
         rdf:about="">
        <dc:format>image/svg+xml</dc:format>
        <dc:type
           rdf:resource="http://purl.org/dc/dcmitype/StillImage" />
        <dc:title></dc:title>
      </cc:Work>
    </rdf:RDF>
  </metadata>
  <g
     inkscape:label="Layer 1"
     inkscape:groupmode="layer"
     id="layer1">
    <path
       sodipodi:type="arc"
       style="fill:#000000;fill-opacity:1;stroke:#000000;stroke-width:1.60000002;stroke-linecap:round;stroke-linejoin:round;stroke-miterlimit:4;stroke-opacity:1;stroke-dasharray:none"
       id="path5563"
       sodipodi:cx="212.63712"
       sodipodi:cy="140.69951"
       sodipodi:rx="28.789347"
       sodipodi:ry="29.7995"
       d="m 241.42646,140.69951 a 28.789347,29.7995 0 1 1 -57.57869,0 28.789347,29.7995 0 1 1 57.57869,0 z"
       transform="translate(4,22)" />
    <rect
       style="fill:#000000;fill-opacity:1;stroke:#000000;stroke-width:1.60000002;stroke-linecap:round;stroke-linejoin:round;stroke-miterlimit:4;stroke-opacity:1;stroke-dasharray:none"
       id="rect6073"
       width="35.355339"
       height="149.50258"
       x="190.91884"
       y="196.64114"
       ry="13.998557" />
    <rect
       style="fill:#000000;fill-opacity:1;stroke:#000000;stroke-width:1.60000002;stroke-linecap:round;stroke-linejoin:round;stroke-miterlimit:4;stroke-opacity:1;stroke-dasharray:none"
       id="rect6075"
       width="32.324883"
       height="147.48227"
       x="12.515773"
       y="371.02316"
       ry="13.998557"
       transform="matrix(0.8775862,-0.47941887,0.47941887,0.8775862,0,0)" />
    <rect
       style="fill:#000000;fill-opacity:1;stroke:#000000;stroke-width:1.60000002;stroke-linecap:round;stroke-linejoin:round;stroke-miterlimit:4;stroke-opacity:1;stroke-dasharray:none"
       id="rect6075-8"
       width="32.324883"
       height="147.48227"
       x="-351.49948"
       y="172.16386"
       ry="13.998557"
       transform="matrix(-0.8775862,-0.47941887,-0.47941887,0.8775862,0,0)" />
    <rect
       style="fill:#000000;fill-opacity:1;stroke:#000000;stroke-width:1.17234015;stroke-linecap:round;stroke-linejoin:round;stroke-miterlimit:4;stroke-opacity:1;stroke-dasharray:none"
       id="rect6075-6"
       width="23.684849"
       height="108.06212"
       x="70.549728"
       y="281.87357"
       ry="10.256919"
       transform="matrix(0.8775862,-0.47941887,0.47941887,0.8775862,0,0)" />
    <rect
       style="fill:#000000;fill-opacity:1;stroke:#000000;stroke-width:1.17234015;stroke-linecap:round;stroke-linejoin:round;stroke-miterlimit:4;stroke-opacity:1;stroke-dasharray:none"
       id="rect6075-6-5"
       width="23.684849"
       height="108.06212"
       x="-296.8118"
       y="77.809746"
       ry="10.256919"
       transform="matrix(-0.8775862,-0.47941887,-0.47941887,0.8775862,0,0)" />
    <rect
       style="fill:#000000;fill-opacity:1;stroke:#000000;stroke-width:1.60000002;stroke-linecap:round;stroke-linejoin:round;stroke-miterlimit:4;stroke-opacity:1;stroke-dasharray:none"
       id="rect6131"
       width="36.36549"
       height="26.263966"
       x="-28.144938"
       y="494.01096"
       ry="10.256919"
       transform="matrix(0.82710041,-0.56205419,0.56205419,0.82710041,0,0)" />
    <rect
       style="fill:#000000;fill-opacity:1;stroke:#000000;stroke-width:1.60000002;stroke-linecap:round;stroke-linejoin:round;stroke-miterlimit:4;stroke-opacity:1;stroke-dasharray:none"
       id="rect6131-1"
       width="36.36549"
       height="26.263966"
       x="183.25711"
       y="403.3786"
       ry="10.256919"
       transform="matrix(0.99583679,0.09115415,-0.09115415,0.99583679,0,0)" />
    <path
       sodipodi:type="arc"
       style="fill:#000000;fill-opacity:1;stroke:#000000;stroke-width:1.60000002;stroke-linecap:round;stroke-linejoin:round;stroke-miterlimit:4;stroke-opacity:1;stroke-dasharray:none"
       id="path6151"
       sodipodi:cx="266.1752"
       sodipodi:cy="324.54727"
       sodipodi:rx="11.616755"
       sodipodi:ry="11.616755"
       d="m 277.79196,324.54727 a 11.616755,11.616755 0 1 1 -23.23351,0 11.616755,11.616755 0 1 1 23.23351,0 z"
       transform="translate(1.0304576,-12.060915)" />
    <path
       style="fill:#803300;fill-opacity:1;stroke:#000000;stroke-width:1.60000002;stroke-linecap:round;stroke-linejoin:round;stroke-miterlimit:4;stroke-opacity:1;stroke-dasharray:none"
       d="m 140.09186,298.45714 c -4.01801,-4.01802 -10.49977,-4.04012 -14.51778,-0.0221 l -6.47445,6.47444 -14.53988,-14.53988 c -4.01802,-4.01801 -10.477679,-4.01801 -14.495693,0 l -38.360543,38.36054 c -4.018014,4.01802 -4.018014,10.47768 0,14.49569 l 63.352346,63.35235 c 4.01801,4.01801 10.47767,4.01801 14.49569,0 l 38.36054,-38.36054 c 4.01801,-4.01802 4.01801,-10.47768 0,-14.49569 l -14.51778,-14.51779 6.47444,-6.47444 c 4.01802,-4.01802 4.01802,-10.47768 0,-14.49569 l -19.77689,-19.77689 z m 3.73441,16.72749 c 0.93982,0.93982 1.65141,2.02714 2.12132,3.18198 0.46991,1.15484 0.7071,2.3974 0.7071,3.62392 0,1.22652 -0.25929,2.44699 -0.7292,3.60183 -0.46991,1.15484 -1.1594,2.22006 -2.09922,3.15988 l -0.44194,0.44194 -13.56761,-13.56761 0.44194,-0.44194 c 0.93982,-0.93982 2.00504,-1.62932 3.15988,-2.09922 1.15484,-0.46991 2.3974,-0.70711 3.62392,-0.70711 1.22652,0 2.46909,0.2372 3.62393,0.70711 1.15484,0.4699 2.22006,1.1594 3.15988,2.09922 z"
       id="rect6153"
       inkscape:connector-curvature="0" />
    <path
       style="fill:#000000;fill-opacity:1;stroke:#000000;stroke-width:1.60000002;stroke-linecap:round;stroke-linejoin:round;stroke-miterlimit:4;stroke-opacity:1;stroke-dasharray:none"
       d="m 413.40149,347.07132 c -5.68233,0 -10.28125,4.56767 -10.28125,10.25 l 0,9.15625 -20.5625,0 c -5.68233,0 -10.25,4.56767 -10.25,10.25 l 0,54.25 c 0,5.68233 4.56767,10.25 10.25,10.25 l 89.59375,0 c 5.68233,0 10.25,-4.56767 10.25,-10.25 l 0,-54.25 c 0,-5.68233 -4.56767,-10.25 -10.25,-10.25 l -20.53125,0 0,-9.15625 c 0,-5.68233 -4.56767,-10.25 -10.25,-10.25 l -27.96875,0 z m 14.46875,9.1875 c 1.32911,0 2.60113,0.26568 3.75,0.75 1.14887,0.48432 2.19522,1.19522 3.0625,2.0625 0.86728,0.86728 1.54693,1.91363 2.03125,3.0625 0.48432,1.14887 0.75,2.38964 0.75,3.71875 l 0,0.625 -19.1875,0 0,-0.625 c 0,-1.32911 0.26568,-2.56988 0.75,-3.71875 0.48432,-1.14887 1.19522,-2.19522 2.0625,-3.0625 0.86728,-0.86728 1.91363,-1.57818 3.0625,-2.0625 1.14887,-0.48432 2.38964,-0.75 3.71875,-0.75 z"
       id="rect6153-4"
       inkscape:connector-curvature="0" />
    <path
       sodipodi:type="arc"
       style="fill:#000000;fill-opacity:1;stroke:#000000;stroke-width:1.60000002;stroke-linecap:round;stroke-linejoin:round;stroke-miterlimit:4;stroke-opacity:1;stroke-dasharray:none"
       id="path6151-8"
       sodipodi:cx="266.1752"
       sodipodi:cy="324.54727"
       sodipodi:rx="11.616755"
       sodipodi:ry="11.616755"
       d="m 277.79196,324.54727 a 11.616755,11.616755 0 1 1 -23.23351,0 11.616755,11.616755 0 1 1 23.23351,0 z"
       transform="translate(-114.65232,-15.657363)" />
  </g>
</svg>
